<?xml version="1.0" encoding="utf-8"?>
<!-- Generator: Adobe Illustrator 19.0.0, SVG Export Plug-In . SVG Version: 6.00 Build 0)  -->
<svg version="1.1" id="layer" xmlns="http://www.w3.org/2000/svg" xmlns:xlink="http://www.w3.org/1999/xlink" x="0px" y="0px" viewBox="-153 -46 652 652" style="enable-background:new -153 -46 652 652;" xml:space="preserve">
    <style type="text/css">
        .st0 {
            fill: #38AC49;
        }

        .st1 {
            fill: #E98824;
        }

        .st2 {
            fill: #FFFFFF;
        }

        .st3 {
            fill: #EDC91A;
        }

        .st4 {
            fill: #008C44;
        }

        .st5 {
            fill: #F47920;
        }

        .st6 {
            fill: #6D6E71;
        }
    </style>
    <path d="M468.5,295.9l-16.7,13.7h-8.5l1.8-2.9h-182H159.9H-88.7l11-21.6h248.6h103.2h171l-1.8-2.9h8.5L468.5,295.9z M191.9,313.4
	l-25,49.1h33.9l25-49.1H191.9z M-92.1,313.4l-25,49.1h33l14.3-28.2h42.9l10.7-20.9H-92.1z M22.2,312.9c-10.3,0-19.7,5.8-24.4,14.9
	L-20.1,363H1.3l18.6-36.5h32.2l-2.4,4.7H23.2l-6.9,13.6h26.5L33.5,363h21.4l25.5-50.2H22.2z M73.6,349.9l-7.1,13.9h65.9
	c12,0,21.7-9.7,21.7-21.7c0-5.9-4.8-10.7-10.7-10.7h-38.3l2.8-5.5h50.8l7-13.7h-53.5c-10.6,0-22.6,5.6-29.1,19.2
	c-3,6,1.3,13.1,8,13.1h40.4l-2.8,5.5H73.6z M286.8,344.5l6.7-13.1h-31.7c-10.3,0-19.7,5.8-24.4,15l-2,3.9
	c-3.1,6.1,1.3,13.3,8.2,13.3h61.5l20.1-39.4c2.7-5.4-1.2-11.8-7.2-11.8h-60.4l-7.2,14.2H302l-2.5,4.8l-9.1,18h-32.8l2.3-4.8H286.8z
	 M408.9,311.8c5.8,0,9.6,6.1,6.9,11.3l-27.2,53.5c-4.3,8.5-13.1,13.9-22.7,13.9H78.1l3.5,4.2h-6.9l-13.6-11.2l13.6-11.2h6.9
	l-3.5,4.2h288.3l7.4-14.5h-40.5c-6,0-9.9-6.4-7.2-11.7l13.5-26.4c3.8-7.4,11.4-12.1,19.8-12.1H408.9 M392.7,324.9h-31.9L349,348.1
	h31.9L392.7,324.9z" />
    <polygon class="st0" points="169.2,283.4 158.2,305 261.4,305 272.4,283.4 " />
    <polygon class="st1" points="-79.4,283.4 -90.4,305 158.2,305 169.2,283.4 " />
    <polygon class="st1" points="450.1,280.5 441.6,280.5 443.4,283.4 272.4,283.4 261.4,305 443.4,305 441.6,308 450.1,308 
	466.9,294.2 " />
    <path class="st2" d="M206.5,301.5c8.4-4.3,12.4-0.3,13.3,0.9l-3,2c-3.2-2.9-8.6-1.3-10.1-0.7L206.5,301.5 M205.8,295.4l0.3,2.8
	c12.6-6.4,17.6,0.1,18.3,1.1l3.7-2.4C224.9,290.3,211.8,291.4,205.8,295.4 M205.1,289.2l0.3,2.7c15.8-7,23.8-3.6,27.3,1.9l3.8-2.5
	C229.7,280.4,213.3,284,205.1,289.2" />
    <path class="st1" d="M204.1,280.5c18.5-10.7,37.4-8.2,43.3,3.4l-5,3.3c-5.4-10-22.7-11.9-37.9-2.6L204.1,280.5 M202.9,269.6l0.6,5.7
	c20.1-10.8,41.8-9.5,49.8,4.7l7.2-4.8C254.3,258.2,220,257.9,202.9,269.6" />
    <path class="st1" d="M-28.6,332.7h-42.9l-14.3,28.2h-33l25-49.1h75.9L-28.6,332.7z M20.6,311.2c-10.3,0-19.7,5.8-24.4,14.9
	l-17.9,35.2h21.4l18.6-36.5h32.2l-2.4,4.7H21.5l-6.9,13.6h26.5l-9.2,18.2h21.4l25.5-50.2H20.6z M157.1,324.1l7-13.7h-53.5
	c-10.6,0-22.6,5.6-29.2,19.2c-3,6,1.3,13.1,8,13.1h40.4l-2.8,5.5H71.9l-7.1,13.9h65.9c12,0,21.7-9.7,21.7-21.7
	c0-5.9-4.8-10.8-10.7-10.8h-38.3l2.8-5.5H157.1z" />
    <path class="st0" d="M199.2,360.8h-33.9l25-49.1h33.9L199.2,360.8z M316.3,310.7h-60.4l-7.2,14.2h51.7l-2.5,4.8l-9.1,18h-32.8
	l2.3-4.8h27l6.7-13.1h-31.7c-10.3,0-19.7,5.8-24.4,15l-2,3.9c-3.1,6.1,1.3,13.3,8.2,13.3h61.5l20.1-39.4
	C326.3,317.1,322.3,310.7,316.3,310.7 M407.3,310.2c5.8,0,9.6,6.1,6.9,11.3L387,375c-4.3,8.5-13.1,13.9-22.6,13.9H76.4l3.6,4.2H73
	l-13.6-11.2L73,370.8H80l-3.6,4.2h288.3l7.4-14.5h-40.5c-6,0-9.9-6.4-7.2-11.7l13.5-26.4c3.8-7.4,11.4-12.1,19.8-12.1H407.3
	 M391,323.3h-31.9l-11.8,23.2h31.9L391,323.3z" />
    <path class="st3" d="M296.9,295.9h-19.8c-0.7,0-1.2-0.7-0.8-1.4l0.5-1c0.3-0.6,0.9-0.9,1.5-0.9h19.8c0.7,0,1.2,0.7,0.8,1.4l-0.5,1
	C298.2,295.5,297.6,295.9,296.9,295.9 M341.6,295.9c0.7,0,1.3-0.4,1.5-1l0.5-1c0.3-0.6-0.1-1.4-0.8-1.4h-19.8
	c-0.7,0-1.3,0.4-1.6,0.9l-0.5,1c-0.3,0.6,0.1,1.4,0.8,1.4H341.6 M386.3,295.9c0.7,0,1.3-0.4,1.6-1l0.5-1c0.3-0.6-0.1-1.4-0.8-1.4
	h-19.8c-0.7,0-1.3,0.4-1.6,0.9l-0.5,1c-0.3,0.6,0.1,1.4,0.8,1.4H386.3 M431,295.9c0.7,0,1.3-0.4,1.6-1l0.5-1
	c0.3-0.6-0.1-1.4-0.8-1.4h-19.8c-0.7,0-1.3,0.4-1.5,0.9l-0.5,1c-0.3,0.6,0.1,1.4,0.8,1.4H431 M143,383.1c0.5,0,0.9-0.3,1.1-0.7
	l0.3-0.7c0.2-0.4-0.1-1-0.6-1h-14c-0.5,0-0.9,0.3-1.1,0.7l-0.4,0.7c-0.2,0.4,0.1,1,0.6,1H143 M210.8,383.1c0.5,0,0.9-0.3,1.1-0.7
	l0.3-0.7c0.2-0.4-0.1-1-0.6-1h-14c-0.5,0-0.9,0.3-1.1,0.7l-0.4,0.7c-0.2,0.4,0.1,1,0.6,1H210.8 M278.7,383.1c0.5,0,0.9-0.3,1.1-0.7
	l0.3-0.7c0.2-0.4-0.1-1-0.6-1h-14c-0.5,0-0.9,0.3-1.1,0.7l-0.4,0.7c-0.2,0.4,0.1,1,0.6,1H278.7 M346.5,383.1c0.5,0,0.9-0.3,1.1-0.7
	l0.3-0.7c0.2-0.4-0.1-1-0.6-1h-14c-0.5,0-0.9,0.3-1.1,0.7l-0.4,0.7c-0.2,0.4,0.1,1,0.6,1H346.5" />
    <path d="M-131.5,387.3l5.7-11.2h10.1l-0.5,0.9h-8.7l-2.1,4h7.8l-0.5,0.9h-7.8l-2.3,4.4h8.9l-0.5,0.9H-131.5z M-111.9,382.7
	c-2.7,0.3-4.4,1.1-5.1,2.4c-0.2,0.4-0.3,0.7-0.2,1c0,0.3,0.2,0.5,0.4,0.7c0.2,0.2,0.6,0.3,1,0.4c0.4,0.1,0.8,0.1,1.3,0.1
	c0.8,0,1.6-0.1,2.4-0.3c0.8-0.2,1.6-0.6,2.4-1c-0.1,0.1-0.1,0.3-0.2,0.4c0,0.1,0,0.2,0,0.4c0,0.1,0.1,0.2,0.2,0.3
	c0.1,0.1,0.2,0.1,0.4,0.1c0.2,0,0.4,0,0.5,0c0.2,0,0.4,0,0.6-0.1c0.2,0,0.4-0.1,0.5-0.1l0.4-0.7c-0.6,0.1-1,0.2-1.1,0.1
	c-0.1-0.1-0.1-0.3,0.1-0.7l2.2-4.4c0.2-0.5,0.3-0.9,0.3-1.2c0-0.3-0.2-0.6-0.5-0.8c-0.3-0.2-0.6-0.3-1.1-0.4
	c-0.4-0.1-0.9-0.1-1.5-0.1c-0.6,0-1.2,0-1.8,0.1c-0.6,0.1-1.1,0.3-1.6,0.5c-0.5,0.2-1,0.5-1.4,0.8c-0.4,0.3-0.8,0.7-1.1,1.2h1.3
	c0.2-0.4,0.5-0.6,0.8-0.9c0.3-0.2,0.6-0.4,1-0.6c0.3-0.1,0.7-0.2,1.1-0.3c0.4-0.1,0.8-0.1,1.3-0.1c1,0,1.6,0.2,1.9,0.5
	c0.3,0.3,0.3,0.7,0,1.2c-0.1,0.1-0.2,0.3-0.3,0.5c-0.1,0.2-0.3,0.3-0.6,0.4c-0.2,0.1-0.6,0.1-0.9,0.2c-0.4,0-0.7,0.1-0.9,0.1
	L-111.9,382.7z M-108.8,384.3c-0.2,0.4-0.5,0.8-0.9,1c-0.4,0.3-0.8,0.5-1.3,0.7c-0.5,0.2-1,0.3-1.5,0.4c-0.5,0.1-1,0.1-1.6,0.1
	c-0.3,0-0.6,0-0.8-0.1c-0.3-0.1-0.5-0.1-0.6-0.3c-0.2-0.1-0.3-0.3-0.3-0.5c0-0.2,0-0.4,0.1-0.6c0.3-0.5,0.8-1,1.4-1.2
	c0.7-0.3,1.5-0.4,2.5-0.5c0.6,0,1.1-0.1,1.7-0.1c0.6,0,1.2-0.2,1.8-0.3L-108.8,384.3z M-102,384.7c-0.2,0.4-0.2,0.7-0.2,1.1
	c0,0.3,0.2,0.6,0.4,0.9c0.2,0.3,0.6,0.4,1,0.6c0.4,0.1,1,0.2,1.6,0.2c0.6,0,1.3,0,1.9-0.1c0.6-0.1,1.1-0.2,1.6-0.4
	c0.5-0.2,0.9-0.4,1.3-0.7c0.4-0.3,0.7-0.6,0.9-1c0.3-0.5,0.3-0.9,0.1-1.2c-0.2-0.3-0.5-0.5-1-0.7c-0.4-0.2-0.9-0.3-1.5-0.4
	c-0.6-0.1-1.1-0.2-1.5-0.3c-0.5-0.1-0.8-0.3-1.1-0.5c-0.2-0.2-0.3-0.5-0.1-0.8c0.2-0.4,0.6-0.7,1.2-1c0.6-0.3,1.2-0.4,2-0.4
	c0.8,0,1.4,0.1,1.8,0.4c0.4,0.3,0.5,0.7,0.3,1.3h1.3c0.3-0.9,0.2-1.6-0.3-2c-0.5-0.4-1.4-0.6-2.6-0.6c-1.2,0-2.3,0.2-3.2,0.6
	c-0.9,0.4-1.5,1-1.9,1.7c-0.3,0.5-0.3,0.9-0.1,1.2c0.2,0.3,0.5,0.5,1,0.7c0.4,0.2,0.9,0.3,1.5,0.4c0.6,0.1,1.1,0.2,1.6,0.3
	c0.5,0.1,0.8,0.3,1.1,0.4c0.2,0.2,0.3,0.5,0.1,0.9c-0.1,0.2-0.2,0.4-0.5,0.6c-0.2,0.2-0.4,0.3-0.7,0.5c-0.3,0.1-0.6,0.3-1,0.3
	c-0.4,0.1-0.8,0.1-1.3,0.1c-1,0-1.6-0.1-2-0.4c-0.4-0.3-0.5-0.8-0.3-1.5H-102z M-90.9,390.3c0.2,0,0.3,0.1,0.5,0.1
	c0.2,0,0.4,0,0.6,0c0.4,0,0.8-0.1,1.2-0.2c0.4-0.2,0.8-0.4,1.2-0.7c0.4-0.3,0.8-0.6,1.3-1c0.4-0.4,0.9-0.9,1.4-1.4l8.1-7.9h-1.4
	l-7,6.9l0-6.9h-1.4l0.1,8.1c-0.2,0.2-0.4,0.4-0.7,0.6c-0.2,0.3-0.5,0.5-0.7,0.7c-0.3,0.2-0.6,0.4-0.9,0.6c-0.3,0.2-0.6,0.3-1,0.3
	c-0.2,0-0.4,0-0.5,0c-0.2,0-0.3,0-0.5-0.1L-90.9,390.3z M-62.6,386.5c-0.2,0-0.4,0.1-0.6,0.1c-0.2,0-0.4,0-0.5,0
	c-0.3,0-0.5,0-0.6-0.1c-0.1,0-0.2-0.1-0.2-0.2c0-0.1,0-0.2,0.1-0.4c0.1-0.1,0.1-0.3,0.2-0.5l2.8-5.5h2.1l0.4-0.8h-2l1.1-2.2h-1.3
	l-1.1,2.2h-1.5l-0.4,0.8h1.5l-3,5.9c-0.3,0.6-0.4,1-0.1,1.3c0.2,0.2,0.6,0.3,1.3,0.3c0.3,0,0.6,0,0.9-0.1c0.3-0.1,0.5-0.1,0.7-0.1
	L-62.6,386.5z M-52.1,387.5c0.8,0,1.5-0.1,2.2-0.3c0.7-0.2,1.4-0.5,2-0.9c0.6-0.4,1.2-0.8,1.7-1.3c0.5-0.5,0.9-1.1,1.2-1.7
	c0.3-0.6,0.5-1.1,0.5-1.7c0.1-0.5,0-1-0.3-1.3c-0.2-0.4-0.6-0.7-1.1-0.9c-0.5-0.2-1.2-0.3-2.1-0.3c-0.9,0-1.6,0.1-2.4,0.3
	c-0.7,0.2-1.4,0.5-2.1,0.9c-0.6,0.4-1.2,0.8-1.6,1.3c-0.5,0.5-0.9,1.1-1.2,1.7c-0.4,0.7-0.5,1.3-0.5,1.8c0,0.5,0.1,1,0.4,1.3
	c0.3,0.4,0.7,0.6,1.2,0.8C-53.4,387.4-52.8,387.5-52.1,387.5 M-46.2,383.2c-0.2,0.4-0.5,0.9-0.9,1.3c-0.4,0.4-0.8,0.8-1.2,1.1
	c-0.5,0.3-1,0.6-1.5,0.8c-0.6,0.2-1.2,0.3-1.9,0.3c-0.6,0-1.1-0.1-1.5-0.2c-0.4-0.2-0.6-0.4-0.8-0.7c-0.2-0.3-0.2-0.7-0.2-1.1
	c0.1-0.4,0.2-0.9,0.5-1.4c0.2-0.4,0.5-0.9,0.9-1.3c0.3-0.4,0.8-0.8,1.2-1.1c0.5-0.3,1-0.6,1.5-0.8c0.6-0.2,1.2-0.3,1.8-0.3
	c0.7,0,1.2,0.1,1.6,0.3c0.4,0.2,0.6,0.4,0.8,0.7c0.1,0.3,0.2,0.7,0.1,1.1C-45.8,382.3-46,382.8-46.2,383.2 M-16.3,379.3
	c0.2-0.6,0.2-1.1,0.1-1.5c-0.1-0.4-0.3-0.8-0.7-1.1c-0.4-0.3-0.8-0.5-1.4-0.7c-0.6-0.2-1.3-0.2-2.1-0.2c-1,0-2,0.1-3,0.3
	c-1,0.2-1.9,0.6-2.8,1c-0.9,0.5-1.7,1.1-2.4,1.8c-0.7,0.7-1.4,1.6-1.9,2.7c-0.4,0.8-0.7,1.5-0.8,2.2c-0.1,0.7-0.1,1.3,0.2,1.9
	c0.3,0.5,0.7,1,1.4,1.3c0.7,0.3,1.6,0.5,2.8,0.5c1,0,2-0.1,2.8-0.3c0.9-0.2,1.7-0.5,2.4-0.9c0.7-0.4,1.4-0.8,1.9-1.3
	c0.6-0.5,1.1-1,1.5-1.5h-1.5c-0.4,0.4-0.8,0.9-1.3,1.2c-0.5,0.4-1,0.7-1.5,1c-0.5,0.3-1.1,0.5-1.7,0.6c-0.6,0.2-1.3,0.2-1.9,0.2
	c-1,0-1.8-0.1-2.4-0.4c-0.5-0.3-0.9-0.7-1.1-1.1c-0.2-0.5-0.2-1-0.1-1.6c0.1-0.6,0.4-1.2,0.7-1.8c0.3-0.7,0.8-1.3,1.3-1.9
	c0.5-0.6,1.1-1.1,1.8-1.6c0.7-0.5,1.4-0.8,2.2-1.1c0.8-0.3,1.7-0.4,2.6-0.4c1.3,0,2.2,0.2,2.8,0.6c0.6,0.4,0.8,1.1,0.6,2H-16.3z
	 M-12.1,383.3c0.2-0.4,0.5-0.9,0.8-1.3c0.3-0.4,0.7-0.8,1.1-1.1c0.4-0.3,0.9-0.5,1.5-0.7c0.6-0.2,1.2-0.3,1.9-0.2l0.5-1
	c-0.9,0-1.7,0.1-2.4,0.4c-0.7,0.3-1.4,0.7-2,1.3h0l0.8-1.5h-1.3l-3.3,8h0.4L-12.1,383.3z M4.7,383.6c-0.2,0.4-0.5,0.9-0.9,1.2
	c-0.3,0.4-0.7,0.7-1.2,1c-0.4,0.3-0.9,0.5-1.4,0.6c-0.5,0.1-1,0.2-1.5,0.2c-1,0-1.6-0.2-1.9-0.6c-0.2-0.4-0.2-0.9,0.2-1.6l2.7-5.3
	h-1.3l-2.7,5.3c-0.2,0.4-0.4,0.8-0.4,1.2c0,0.4,0,0.7,0.2,0.9c0.2,0.3,0.5,0.5,0.9,0.6c0.4,0.2,1,0.2,1.7,0.2c0.5,0,0.9,0,1.3-0.1
	c0.4-0.1,0.8-0.2,1.1-0.3c0.3-0.1,0.7-0.3,1-0.4c0.3-0.2,0.6-0.3,0.8-0.4l-0.6,1.1h1.3l4.1-8H6.9L4.7,383.6z M17.5,377.5l0.7-1.4
	h-1.4l-0.7,1.4H17.5z M12.4,387.3l4.1-8h-1.3l-4.1,8H12.4z M18.5,384.7c-0.2,0.4-0.2,0.7-0.2,1.1c0,0.3,0.1,0.6,0.4,0.9
	c0.2,0.3,0.6,0.4,1,0.6c0.4,0.1,1,0.2,1.6,0.2c0.7,0,1.3,0,1.9-0.1c0.6-0.1,1.1-0.2,1.6-0.4c0.5-0.2,0.9-0.4,1.3-0.7
	c0.4-0.3,0.7-0.6,0.9-1c0.3-0.5,0.3-0.9,0.1-1.2c-0.2-0.3-0.5-0.5-0.9-0.7c-0.4-0.2-0.9-0.3-1.5-0.4c-0.6-0.1-1.1-0.2-1.5-0.3
	c-0.5-0.1-0.8-0.3-1.1-0.5c-0.2-0.2-0.3-0.5-0.1-0.8c0.2-0.4,0.6-0.7,1.2-1c0.6-0.3,1.2-0.4,2-0.4c0.8,0,1.4,0.1,1.8,0.4
	c0.4,0.3,0.5,0.7,0.3,1.3h1.3c0.3-0.9,0.2-1.6-0.3-2c-0.5-0.4-1.4-0.6-2.6-0.6c-1.2,0-2.3,0.2-3.2,0.6c-0.9,0.4-1.5,1-1.9,1.7
	c-0.3,0.5-0.3,0.9-0.1,1.2c0.2,0.3,0.5,0.5,1,0.7c0.4,0.2,0.9,0.3,1.5,0.4c0.6,0.1,1.1,0.2,1.6,0.3c0.5,0.1,0.8,0.3,1.1,0.4
	c0.2,0.2,0.3,0.5,0.1,0.9c-0.1,0.2-0.3,0.4-0.5,0.6c-0.2,0.2-0.4,0.3-0.7,0.5c-0.3,0.1-0.6,0.3-1,0.3c-0.4,0.1-0.8,0.1-1.3,0.1
	c-1,0-1.6-0.1-2-0.4c-0.4-0.3-0.5-0.8-0.3-1.5H18.5z M42.5,383.5c0.8-1.4,0.9-2.5,0.4-3.3c-0.5-0.8-1.5-1.1-3-1.1
	c-0.8,0-1.6,0.1-2.3,0.3c-0.7,0.2-1.4,0.5-2,0.9c-0.6,0.4-1.2,0.8-1.7,1.4c-0.5,0.5-0.9,1.1-1.2,1.7c-0.3,0.6-0.5,1.1-0.6,1.7
	c-0.1,0.5,0,1,0.2,1.3c0.2,0.4,0.6,0.7,1.1,0.9c0.5,0.2,1.2,0.3,2.1,0.3c0.7,0,1.3-0.1,1.9-0.2c0.6-0.1,1.1-0.3,1.6-0.6
	c0.5-0.2,1-0.5,1.4-0.8c0.4-0.3,0.8-0.7,1.2-1.1h-1.4c-0.5,0.6-1.1,1-1.9,1.4c-0.8,0.3-1.6,0.5-2.4,0.5c-0.6,0-1.1-0.1-1.5-0.3
	c-0.4-0.2-0.6-0.4-0.8-0.7c-0.2-0.3-0.2-0.6-0.2-1c0-0.4,0.2-0.8,0.4-1.2H42.5z M34.4,382.7c0.3-0.4,0.6-0.7,0.9-1.1
	c0.4-0.3,0.8-0.6,1.2-0.9c0.4-0.3,0.9-0.5,1.4-0.6c0.5-0.2,1-0.2,1.6-0.2c0.6,0,1,0.1,1.4,0.2c0.4,0.1,0.6,0.4,0.8,0.6
	c0.2,0.3,0.2,0.6,0.2,0.9c0,0.3-0.2,0.7-0.4,1.1H34.4z" />
</svg>